<svg xmlns="http://www.w3.org/2000/svg" width="200" height="200" viewBox="0 0 200 200" version="1.1"><path d="M 77.500 64.935 C 70.160 66.722, 66.268 69.983, 63.077 77.018 C 58.552 86.994, 61.877 100.246, 70.304 105.817 C 73.913 108.203, 75.310 108.500, 82.931 108.500 C 90.179 108.500, 92.155 108.125, 95.750 106.066 C 100.280 103.471, 100.568 102.931, 98.993 99.986 C 98.008 98.146, 97.891 98.147, 93.743 100.030 C 82.420 105.170, 70.016 99.537, 70.004 89.250 C 70 86, 70 86, 85 86 C 100 86, 100 86, 100 81.450 C 100 75.894, 98.052 71.904, 93.731 68.608 C 91.073 66.581, 83.149 63.792, 81 64.127 C 80.725 64.170, 79.150 64.533, 77.500 64.935 M 117.828 65.577 C 114.552 66.585, 111.966 68.368, 109.169 71.545 C 100.179 81.758, 101.559 96.720, 112.287 105.360 C 117.409 109.485, 126.583 110.273, 132.765 107.120 C 135.019 105.970, 137.146 104.572, 137.491 104.014 C 138.473 102.426, 139.808 102.820, 140.466 104.892 C 141.977 109.654, 153.131 109.986, 153.810 105.289 C 154.056 103.589, 153.538 103.078, 151.310 102.822 C 148.500 102.500, 148.500 102.500, 148.228 83.750 C 147.956 65, 147.956 65, 145.197 65 C 143.032 65, 142.187 65.665, 141.272 68.091 C 140.105 71.182, 140.105 71.182, 136.782 68.648 C 133.911 66.457, 126.607 63.954, 123.500 64.094 C 122.950 64.119, 120.398 64.786, 117.828 65.577 M 167.297 65.147 C 161.356 66.493, 158 70.719, 158 76.854 C 158 79.502, 158.684 82.531, 159.566 83.791 C 161.284 86.244, 166.811 89.317, 171.500 90.426 C 176.510 91.611, 179 93.761, 179 96.901 C 179 98.471, 178.289 100.346, 177.419 101.067 C 175.095 102.996, 167.003 102.537, 161.661 100.174 C 157 98.112, 157 98.112, 157 101.896 C 157 105.045, 157.461 105.894, 159.750 106.964 C 163.850 108.880, 175.374 109.502, 178.993 108.003 C 184.119 105.880, 187 101.561, 187 96 C 187 89.850, 183.846 85.813, 177.222 83.484 C 166.957 79.876, 166 79.242, 166 76.051 C 166 71.069, 172.304 69.429, 179.654 72.500 C 184.269 74.428, 184 74.547, 184 70.578 C 184 67.589, 183.588 67.027, 180.750 66.149 C 175.176 64.424, 171.650 64.161, 167.297 65.147 M 0.637 66.503 C 0.299 67.384, 0.725 69.176, 1.583 70.486 C 2.866 72.445, 3.086 75.630, 2.821 88.472 C 2.588 99.811, 2.149 104.293, 1.216 104.868 C 0.507 105.306, 0.219 106.407, 0.573 107.330 C 1.051 108.576, 2.460 109, 6.126 109 C 11.039 109, 11.039 109, 10.770 87.250 C 10.500 65.500, 10.500 65.500, 5.876 65.200 C 2.367 64.973, 1.104 65.287, 0.637 66.503 M 19 86.861 C 19 109, 19 109, 28.318 109 C 39.312 109, 46.605 107.111, 50.504 103.252 C 58.601 95.242, 59.181 80.184, 51.702 72.166 C 47.200 67.339, 42.292 65.749, 30.260 65.218 C 19 64.721, 19 64.721, 19 86.861 M 190.314 67.974 C 190.785 71.061, 191.703 71.333, 192.237 68.542 C 192.564 66.831, 192.280 66, 191.368 66 C 190.583 66, 190.139 66.832, 190.314 67.974 M 194 68.863 C 194 70.172, 194.671 70.684, 196.250 70.584 C 197.488 70.506, 198.831 70.905, 199.235 71.471 C 199.639 72.037, 199.976 71.263, 199.985 69.750 C 199.993 68.237, 199.550 67, 199 67 C 198.450 67, 198 67.540, 198 68.200 C 198 69.133, 197.733 69.133, 196.800 68.200 C 195.069 66.469, 194 66.722, 194 68.863 M 76.500 72.103 C 75.400 72.740, 73.723 74.214, 72.772 75.380 C 69.421 79.492, 70.326 80, 81 80 C 90.138 80, 91 79.837, 91 78.111 C 91 74.584, 87.713 71.830, 82.961 71.374 C 80.507 71.139, 77.600 71.467, 76.500 72.103 M 121.686 72.006 C 117.723 73.210, 115.954 74.905, 113.863 79.500 C 111.539 84.609, 111.555 89.424, 113.914 94.617 C 116.454 100.212, 119.314 102, 125.720 102 C 130.375 102, 131.464 101.576, 134.997 98.384 C 139 94.767, 139 94.767, 139 87.106 C 139 81.782, 138.524 78.765, 137.439 77.217 C 134.477 72.987, 126.807 70.450, 121.686 72.006 M 27.223 87.250 C 27.500 101.500, 27.500 101.500, 33.413 101.226 C 43.430 100.763, 47.952 96.945, 48.695 88.324 C 49.532 78.614, 43.684 73.005, 32.723 73.002 C 26.945 73, 26.945 73, 27.223 87.250 M 20.716 124.650 C 20.392 125.174, 19.165 128.055, 17.990 131.052 C 15.853 136.500, 15.853 136.500, 17.965 134.250 C 20.633 131.409, 22.467 131.401, 24.443 134.223 C 25.903 136.307, 25.997 136.323, 25.955 134.473 C 25.893 131.789, 21.451 123.461, 20.716 124.650 M 36.637 125.276 C 34.212 127.049, 35.555 129.961, 39.126 130.675 C 42.029 131.256, 42.802 132.386, 41.041 133.475 C 40.513 133.801, 39.184 133.507, 38.086 132.822 C 35.441 131.170, 33.954 132.762, 36.443 134.582 C 39.010 136.459, 41.483 136.374, 43.519 134.338 C 44.882 132.975, 45.332 132.920, 46.019 134.031 C 46.492 134.796, 48.783 135.451, 51.288 135.535 C 55.719 135.685, 55.719 135.685, 55.247 131.092 C 54.800 126.737, 52.968 124, 50.500 124 C 48.736 124, 45.426 126.759, 46.227 127.561 C 46.626 127.959, 47.632 127.721, 48.463 127.031 C 50.152 125.629, 53.476 126.420, 52.504 127.993 C 52.162 128.547, 51.041 129, 50.012 129 C 48.984 129, 47.480 129.662, 46.671 130.472 C 45.375 131.768, 45.053 131.768, 43.977 130.472 C 43.305 129.662, 41.937 129, 40.937 129 C 38.962 129, 37.404 127.262, 38.445 126.221 C 38.800 125.866, 40.014 126.152, 41.143 126.857 C 43.637 128.415, 44.758 127.619, 43.020 125.524 C 41.477 123.665, 38.973 123.568, 36.637 125.276 M 58.750 125.080 C 55.945 126.714, 56.716 128.984, 60.632 130.619 C 63.380 131.768, 63.982 132.418, 63.107 133.293 C 62.231 134.169, 61.473 134.152, 59.989 133.225 C 57.623 131.748, 57 131.693, 57 132.965 C 57 134.919, 61.125 136.264, 63.626 135.124 C 67.277 133.461, 66.665 130.375, 62.408 128.970 C 59.811 128.113, 59.119 127.481, 59.908 126.692 C 60.697 125.903, 61.333 125.933, 62.200 126.800 C 63.800 128.400, 65 128.318, 65 126.607 C 65 125.841, 64.288 124.941, 63.418 124.607 C 61.349 123.813, 60.837 123.865, 58.750 125.080 M 77.524 125.358 C 76.367 126.205, 75.667 127.955, 75.667 130 C 75.667 132.045, 76.367 133.795, 77.524 134.642 C 79.805 136.309, 83.628 136.411, 84.605 134.830 C 85.103 134.025, 84.765 133.876, 83.523 134.353 C 81.162 135.259, 77 132.512, 77 130.048 C 77 127.082, 79.905 124.759, 82.728 125.468 C 84.293 125.861, 84.937 125.707, 84.525 125.040 C 83.617 123.572, 79.726 123.749, 77.524 125.358 M 91 126 C 89.900 127.100, 89 128.900, 89 130 C 89 132.714, 92.475 136, 95.345 136 C 100.314 136, 102.894 129.024, 99.171 125.655 C 96.712 123.430, 93.432 123.568, 91 126 M 106.150 130.250 C 106.294 136.229, 106.326 136.305, 106.900 132 C 107.500 127.500, 107.500 127.500, 109.242 131.750 C 110.200 134.088, 111.231 136, 111.533 136 C 111.835 136, 112.932 134.088, 113.970 131.750 C 115.859 127.500, 115.859 127.500, 116.047 132 C 116.235 136.500, 116.235 136.500, 117.062 131.561 C 117.520 128.824, 117.499 125.927, 117.015 125.063 C 116.338 123.853, 115.657 124.625, 113.983 128.501 C 111.824 133.500, 111.824 133.500, 109.393 128.750 C 108.056 126.138, 106.745 124, 106.481 124 C 106.216 124, 106.068 126.813, 106.150 130.250 M 122 129.441 C 122 132.434, 122.450 135.160, 123 135.500 C 123.562 135.847, 124 135.052, 124 133.684 C 124 131.780, 124.653 131.119, 127 130.650 C 132.234 129.603, 130.381 124, 124.800 124 C 122.076 124, 122 124.148, 122 129.441 M 134.619 129.279 C 131.473 136.219, 131.370 137.053, 134.007 134.223 C 136.154 131.919, 138.564 132.176, 140.718 134.938 C 142.797 137.604, 142.172 134.136, 139.558 128.500 C 137.238 123.500, 137.238 123.500, 134.619 129.279 M 146.651 124.682 C 145.608 125.725, 145.901 134.821, 147 135.500 C 147.607 135.875, 148 134.434, 148 131.831 C 148 127.544, 148 127.544, 151.073 131.272 C 152.763 133.322, 154.563 135, 155.073 135 C 156.183 135, 156.312 127.926, 155.250 125.332 C 154.699 123.987, 154.367 124.647, 154 127.813 C 153.500 132.126, 153.500 132.126, 150.401 128.078 C 148.697 125.852, 147.010 124.324, 146.651 124.682 M 160.012 124.500 C 160.012 125.050, 160.907 126.850, 162 128.500 C 163.093 130.150, 164.036 132.625, 164.096 134 C 164.195 136.279, 164.269 136.233, 164.929 133.479 C 165.328 131.818, 166.468 129.216, 167.462 127.698 C 168.457 126.180, 169.046 124.713, 168.771 124.438 C 168.496 124.163, 167.470 125.161, 166.490 126.655 C 164.709 129.373, 164.709 129.373, 162.360 126.437 C 161.067 124.821, 160.011 123.950, 160.012 124.500 M 92.750 126.080 C 90.287 127.514, 90.449 132.635, 93 134 C 97.223 136.260, 101.192 131.468, 98.500 127.359 C 96.823 124.801, 95.465 124.499, 92.750 126.080 M 124 128.073 C 124 130.636, 127.310 130.345, 127.812 127.739 C 128.043 126.539, 127.504 126, 126.073 126 C 124.642 126, 124 126.642, 124 128.073 M 20.639 128.498 C 19.746 130.825, 19.807 131, 21.500 131 C 23.183 131, 23.373 130.137, 22.124 128.166 C 21.449 127.102, 21.149 127.169, 20.639 128.498 M 136 129.500 C 136 130.325, 136.661 131, 137.469 131 C 138.363 131, 138.712 130.414, 138.362 129.500 C 138.045 128.675, 137.384 128, 136.893 128 C 136.402 128, 136 128.675, 136 129.500 M 49.750 130.749 C 47.772 131.198, 47.458 132.547, 49.096 133.559 C 49.699 133.932, 50.867 133.562, 51.692 132.737 C 53.355 131.074, 52.441 130.138, 49.750 130.749" stroke="none" fill="#2178b3" fill-rule="evenodd"/><path d="M 0.015 33.750 C 0.024 52.313, 0.406 66.908, 0.864 66.185 C 1.403 65.335, 3.255 64.982, 6.099 65.185 C 10.500 65.500, 10.500 65.500, 10.770 87.250 C 11.039 109, 11.039 109, 6.103 109 C 3.090 109, 0.970 108.513, 0.662 107.750 C 0.385 107.063, 0.122 127.540, 0.079 153.255 C 0 200.010, 0 200.010, 100.250 199.755 C 200.500 199.500, 200.500 199.500, 200.641 133.500 C 200.719 97.200, 200.426 68.625, 199.991 70 C 199.555 71.375, 199.155 71.999, 199.100 71.388 C 199.045 70.776, 197.875 70.399, 196.500 70.549 C 194.609 70.757, 194 70.358, 194 68.912 C 194 66.897, 195.470 66.333, 196.476 67.961 C 196.817 68.513, 197.903 68.207, 199.035 67.238 C 200.914 65.629, 201 64.125, 201 32.778 C 201 0, 201 0, 100.500 0 C 0 0, 0 0, 0.015 33.750 M 0.448 34 C 0.448 52.425, 0.583 59.963, 0.748 50.750 C 0.913 41.537, 0.913 26.463, 0.748 17.250 C 0.583 8.037, 0.448 15.575, 0.448 34 M 77.500 64.935 C 70.160 66.722, 66.268 69.983, 63.077 77.018 C 58.552 86.994, 61.877 100.246, 70.304 105.817 C 73.913 108.203, 75.310 108.500, 82.931 108.500 C 90.179 108.500, 92.155 108.125, 95.750 106.066 C 100.280 103.471, 100.568 102.931, 98.993 99.986 C 98.008 98.146, 97.891 98.147, 93.743 100.030 C 82.420 105.170, 70.016 99.537, 70.004 89.250 C 70 86, 70 86, 85 86 C 100 86, 100 86, 100 81.450 C 100 75.894, 98.052 71.904, 93.731 68.608 C 91.073 66.581, 83.149 63.792, 81 64.127 C 80.725 64.170, 79.150 64.533, 77.500 64.935 M 117.828 65.577 C 114.552 66.585, 111.966 68.368, 109.169 71.545 C 100.179 81.758, 101.559 96.720, 112.287 105.360 C 117.409 109.485, 126.583 110.273, 132.765 107.120 C 135.019 105.970, 137.146 104.572, 137.491 104.014 C 138.473 102.426, 139.808 102.820, 140.466 104.892 C 141.977 109.654, 153.131 109.986, 153.810 105.289 C 154.056 103.589, 153.538 103.078, 151.310 102.822 C 148.500 102.500, 148.500 102.500, 148.228 83.750 C 147.956 65, 147.956 65, 145.197 65 C 143.032 65, 142.187 65.665, 141.272 68.091 C 140.105 71.182, 140.105 71.182, 136.782 68.648 C 133.911 66.457, 126.607 63.954, 123.500 64.094 C 122.950 64.119, 120.398 64.786, 117.828 65.577 M 167.297 65.147 C 161.356 66.493, 158 70.719, 158 76.854 C 158 79.502, 158.684 82.531, 159.566 83.791 C 161.284 86.244, 166.811 89.317, 171.500 90.426 C 176.510 91.611, 179 93.761, 179 96.901 C 179 98.471, 178.289 100.346, 177.419 101.067 C 175.095 102.996, 167.003 102.537, 161.661 100.174 C 157 98.112, 157 98.112, 157 101.896 C 157 105.045, 157.461 105.894, 159.750 106.964 C 163.850 108.880, 175.374 109.502, 178.993 108.003 C 184.119 105.880, 187 101.561, 187 96 C 187 89.850, 183.846 85.813, 177.222 83.484 C 166.957 79.876, 166 79.242, 166 76.051 C 166 71.069, 172.304 69.429, 179.654 72.500 C 184.269 74.428, 184 74.547, 184 70.578 C 184 67.589, 183.588 67.027, 180.750 66.149 C 175.176 64.424, 171.650 64.161, 167.297 65.147 M 19 86.861 C 19 109, 19 109, 28.318 109 C 39.312 109, 46.605 107.111, 50.504 103.252 C 58.601 95.242, 59.181 80.184, 51.702 72.166 C 47.200 67.339, 42.292 65.749, 30.260 65.218 C 19 64.721, 19 64.721, 19 86.861 M 190.314 67.974 C 190.785 71.061, 191.703 71.333, 192.237 68.542 C 192.564 66.831, 192.280 66, 191.368 66 C 190.583 66, 190.139 66.832, 190.314 67.974 M 1.086 87.500 C 1.119 98.472, 1.476 104.719, 2 103.500 C 3.191 100.729, 3.191 72.843, 2 71 C 1.356 70.003, 1.049 75.533, 1.086 87.500 M 76.500 72.103 C 75.400 72.740, 73.723 74.214, 72.772 75.380 C 69.421 79.492, 70.326 80, 81 80 C 90.138 80, 91 79.837, 91 78.111 C 91 74.584, 87.713 71.830, 82.961 71.374 C 80.507 71.139, 77.600 71.467, 76.500 72.103 M 121.686 72.006 C 117.723 73.210, 115.954 74.905, 113.863 79.500 C 111.539 84.609, 111.555 89.424, 113.914 94.617 C 116.454 100.212, 119.314 102, 125.720 102 C 130.375 102, 131.464 101.576, 134.997 98.384 C 139 94.767, 139 94.767, 139 87.106 C 139 81.782, 138.524 78.765, 137.439 77.217 C 134.477 72.987, 126.807 70.450, 121.686 72.006 M 27.223 87.250 C 27.500 101.500, 27.500 101.500, 33.413 101.226 C 43.430 100.763, 47.952 96.945, 48.695 88.324 C 49.532 78.614, 43.684 73.005, 32.723 73.002 C 26.945 73, 26.945 73, 27.223 87.250 M 0.462 153.500 C 0.461 179.350, 0.591 190.068, 0.749 177.319 C 0.907 164.569, 0.907 143.419, 0.749 130.319 C 0.591 117.218, 0.462 127.650, 0.462 153.500 M 20.716 124.650 C 20.392 125.174, 19.165 128.055, 17.990 131.052 C 15.853 136.500, 15.853 136.500, 17.965 134.250 C 20.633 131.409, 22.467 131.401, 24.443 134.223 C 25.903 136.307, 25.997 136.323, 25.955 134.473 C 25.893 131.789, 21.451 123.461, 20.716 124.650 M 36.637 125.276 C 34.212 127.049, 35.555 129.961, 39.126 130.675 C 42.029 131.256, 42.802 132.386, 41.041 133.475 C 40.513 133.801, 39.184 133.507, 38.086 132.822 C 35.441 131.170, 33.954 132.762, 36.443 134.582 C 39.010 136.459, 41.483 136.374, 43.519 134.338 C 44.882 132.975, 45.332 132.920, 46.019 134.031 C 46.492 134.796, 48.783 135.451, 51.288 135.535 C 55.719 135.685, 55.719 135.685, 55.247 131.092 C 54.800 126.737, 52.968 124, 50.500 124 C 48.736 124, 45.426 126.759, 46.227 127.561 C 46.626 127.959, 47.632 127.721, 48.463 127.031 C 50.152 125.629, 53.476 126.420, 52.504 127.993 C 52.162 128.547, 51.041 129, 50.012 129 C 48.984 129, 47.480 129.662, 46.671 130.472 C 45.375 131.768, 45.053 131.768, 43.977 130.472 C 43.305 129.662, 41.937 129, 40.937 129 C 38.962 129, 37.404 127.262, 38.445 126.221 C 38.800 125.866, 40.014 126.152, 41.143 126.857 C 43.637 128.415, 44.758 127.619, 43.020 125.524 C 41.477 123.665, 38.973 123.568, 36.637 125.276 M 58.750 125.080 C 55.945 126.714, 56.716 128.984, 60.632 130.619 C 63.380 131.768, 63.982 132.418, 63.107 133.293 C 62.231 134.169, 61.473 134.152, 59.989 133.225 C 57.623 131.748, 57 131.693, 57 132.965 C 57 134.919, 61.125 136.264, 63.626 135.124 C 67.277 133.461, 66.665 130.375, 62.408 128.970 C 59.811 128.113, 59.119 127.481, 59.908 126.692 C 60.697 125.903, 61.333 125.933, 62.200 126.800 C 63.800 128.400, 65 128.318, 65 126.607 C 65 125.841, 64.288 124.941, 63.418 124.607 C 61.349 123.813, 60.837 123.865, 58.750 125.080 M 77.524 125.358 C 76.367 126.205, 75.667 127.955, 75.667 130 C 75.667 132.045, 76.367 133.795, 77.524 134.642 C 79.805 136.309, 83.628 136.411, 84.605 134.830 C 85.103 134.025, 84.765 133.876, 83.523 134.353 C 81.162 135.259, 77 132.512, 77 130.048 C 77 127.082, 79.905 124.759, 82.728 125.468 C 84.293 125.861, 84.937 125.707, 84.525 125.040 C 83.617 123.572, 79.726 123.749, 77.524 125.358 M 91 126 C 89.900 127.100, 89 128.900, 89 130 C 89 132.714, 92.475 136, 95.345 136 C 100.314 136, 102.894 129.024, 99.171 125.655 C 96.712 123.430, 93.432 123.568, 91 126 M 106.150 130.250 C 106.294 136.229, 106.326 136.305, 106.900 132 C 107.500 127.500, 107.500 127.500, 109.242 131.750 C 110.200 134.088, 111.231 136, 111.533 136 C 111.835 136, 112.932 134.088, 113.970 131.750 C 115.859 127.500, 115.859 127.500, 116.047 132 C 116.235 136.500, 116.235 136.500, 117.062 131.561 C 117.520 128.824, 117.499 125.927, 117.015 125.063 C 116.338 123.853, 115.657 124.625, 113.983 128.501 C 111.824 133.500, 111.824 133.500, 109.393 128.750 C 108.056 126.138, 106.745 124, 106.481 124 C 106.216 124, 106.068 126.813, 106.150 130.250 M 122 129.441 C 122 132.434, 122.450 135.160, 123 135.500 C 123.562 135.847, 124 135.052, 124 133.684 C 124 131.780, 124.653 131.119, 127 130.650 C 132.234 129.603, 130.381 124, 124.800 124 C 122.076 124, 122 124.148, 122 129.441 M 134.619 129.279 C 131.473 136.219, 131.370 137.053, 134.007 134.223 C 136.154 131.919, 138.564 132.176, 140.718 134.938 C 142.797 137.604, 142.172 134.136, 139.558 128.500 C 137.238 123.500, 137.238 123.500, 134.619 129.279 M 146.651 124.682 C 145.608 125.725, 145.901 134.821, 147 135.500 C 147.607 135.875, 148 134.434, 148 131.831 C 148 127.544, 148 127.544, 151.073 131.272 C 152.763 133.322, 154.563 135, 155.073 135 C 156.183 135, 156.312 127.926, 155.250 125.332 C 154.699 123.987, 154.367 124.647, 154 127.813 C 153.500 132.126, 153.500 132.126, 150.401 128.078 C 148.697 125.852, 147.010 124.324, 146.651 124.682 M 160.012 124.500 C 160.012 125.050, 160.907 126.850, 162 128.500 C 163.093 130.150, 164.036 132.625, 164.096 134 C 164.195 136.279, 164.269 136.233, 164.929 133.479 C 165.328 131.818, 166.468 129.216, 167.462 127.698 C 168.457 126.180, 169.046 124.713, 168.771 124.438 C 168.496 124.163, 167.470 125.161, 166.490 126.655 C 164.709 129.373, 164.709 129.373, 162.360 126.437 C 161.067 124.821, 160.011 123.950, 160.012 124.500 M 92.750 126.080 C 90.287 127.514, 90.449 132.635, 93 134 C 97.223 136.260, 101.192 131.468, 98.500 127.359 C 96.823 124.801, 95.465 124.499, 92.750 126.080 M 124 128.073 C 124 130.636, 127.310 130.345, 127.812 127.739 C 128.043 126.539, 127.504 126, 126.073 126 C 124.642 126, 124 126.642, 124 128.073 M 20.639 128.498 C 19.746 130.825, 19.807 131, 21.500 131 C 23.183 131, 23.373 130.137, 22.124 128.166 C 21.449 127.102, 21.149 127.169, 20.639 128.498 M 136 129.500 C 136 130.325, 136.661 131, 137.469 131 C 138.363 131, 138.712 130.414, 138.362 129.500 C 138.045 128.675, 137.384 128, 136.893 128 C 136.402 128, 136 128.675, 136 129.500 M 49.750 130.749 C 47.772 131.198, 47.458 132.547, 49.096 133.559 C 49.699 133.932, 50.867 133.562, 51.692 132.737 C 53.355 131.074, 52.441 130.138, 49.750 130.749" stroke="none" fill="#f8fbfb" fill-rule="evenodd"/></svg>