<svg xmlns="http://www.w3.org/2000/svg" width="200" height="200" viewBox="0 0 200 200" version="1.1"><path d="M 106.534 77.520 C 100.133 79.171, 95.749 83.753, 96.193 88.330 C 96.492 91.415, 96.628 91.498, 101.279 91.435 C 104.151 91.396, 106.666 90.763, 107.582 89.847 C 108.963 88.465, 112.547 77.163, 111.809 76.512 C 111.639 76.362, 109.265 76.816, 106.534 77.520 M 151.250 87.706 C 149.653 88.013, 149 88.844, 149 90.570 C 149 92.063, 148.422 93, 147.500 93 C 146.667 93, 146 93.889, 146 95 C 146 96.111, 146.667 97, 147.500 97 C 148.678 97, 149 98.381, 149 103.429 C 149 111.122, 150.388 113, 156.071 113 C 159.286 113, 160 112.649, 160 111.070 C 160 109.829, 159.196 109.025, 157.750 108.820 C 155.761 108.537, 155.465 107.842, 155.202 102.821 C 154.911 97.262, 154.964 97.135, 157.702 96.821 C 161.397 96.397, 161.434 93.607, 157.750 93.184 C 155.447 92.919, 155 92.390, 155 89.934 C 155 88.320, 154.662 87.061, 154.250 87.136 C 153.838 87.211, 152.488 87.467, 151.250 87.706 M 25.315 93.007 C 23.042 93.923, 21 96.874, 21 99.243 C 21 101.774, 23.566 104.164, 27.049 104.876 C 32.206 105.931, 31.665 108.572, 26.359 108.244 C 23.249 108.052, 22.058 108.405, 21.575 109.664 C 20.684 111.986, 22.668 112.967, 28.295 112.985 C 34.423 113.004, 38.578 109.505, 37.541 105.200 C 36.761 101.961, 34.432 100, 31.368 100 C 30.130 100, 28.809 99.500, 28.431 98.888 C 27.464 97.323, 30.052 95.975, 32.732 96.648 C 35.406 97.319, 37.136 94.333, 34.896 92.914 C 33.141 91.803, 28.184 91.851, 25.315 93.007 M 88.686 93.056 C 87.138 93.499, 85.226 94.398, 84.436 95.053 C 82.831 96.385, 82.484 101.563, 83.941 102.463 C 84.480 102.797, 84.161 104.304, 83.191 105.999 C 81.786 108.453, 81.714 109.299, 82.766 110.988 C 83.800 112.651, 83.772 113.432, 82.613 115.261 C 78.270 122.115, 91.289 126.788, 99.583 121.354 C 102.664 119.335, 103.631 114.612, 101.598 111.510 C 100.288 109.509, 99.056 109.049, 94.339 108.800 C 90.913 108.619, 88.494 108.004, 88.246 107.250 C 87.991 106.479, 88.767 106, 90.267 106 C 96.489 106, 101 102.730, 101 98.221 C 101 94.199, 94.388 91.426, 88.686 93.056 M 38 93.511 C 38 93.792, 39.657 98.350, 41.682 103.641 C 45.097 112.563, 45.258 113.451, 43.899 115.880 C 43.079 117.346, 41.347 118.654, 39.967 118.851 C 37.645 119.181, 36.050 120.553, 36.015 122.250 C 36.007 122.662, 37.947 123, 40.326 123 C 43.534 123, 45.204 122.412, 46.791 120.723 C 48.525 118.877, 59 95.570, 59 93.557 C 59 93.251, 57.686 93, 56.080 93 C 53.466 93, 52.988 93.521, 51.504 97.988 C 50.593 100.732, 49.458 103.217, 48.982 103.511 C 48.506 103.805, 47.333 101.561, 46.376 98.523 C 44.725 93.285, 44.463 93, 41.317 93 C 39.493 93, 38 93.230, 38 93.511 M 60 103.051 L 60 113 63.500 113 L 67 113 67 105.567 C 67 99.024, 67.238 98.059, 68.991 97.503 C 72.322 96.445, 73 97.807, 73 105.559 L 73 113 76.500 113 L 80 113 79.985 105.750 C 79.977 101.763, 79.402 97.375, 78.707 96 C 77.518 93.648, 76.929 93.488, 68.722 93.301 L 60 93.101 60 103.051 M 105.923 95.923 C 103.535 98.311, 103 99.693, 103 103.469 C 103 109.759, 106.140 113.006, 112.205 112.986 C 118.359 112.967, 121.153 112.034, 120.785 110.121 C 120.550 108.900, 119.289 108.493, 115.683 108.472 C 111.264 108.446, 109.066 107.219, 109.015 104.750 C 109.007 104.338, 111.925 104, 115.500 104 L 122 104 122 100.689 C 122 95.729, 118.941 93, 113.384 93 C 109.702 93, 108.295 93.551, 105.923 95.923 M 125 103.105 L 125 113 128 113 L 131 113 131 106.035 C 131 100.022, 131.282 98.919, 133.064 97.966 C 136.626 96.059, 138 98.329, 138 106.122 L 138 113 141 113 L 144 113 144 104.571 C 144 93.622, 143.485 93.088, 132.981 93.157 L 125 93.210 125 103.105 M 164.692 93.701 C 163.497 94.010, 162.996 94.905, 163.215 96.335 C 163.423 97.686, 164.102 98.341, 165.024 98.076 C 167.988 97.226, 172.319 97.529, 172.693 98.613 C 172.907 99.237, 171.467 99.987, 169.414 100.320 C 167.400 100.647, 164.908 101.678, 163.876 102.612 C 161.707 104.575, 161.352 110.217, 163.296 111.831 C 164.008 112.422, 167.833 112.896, 171.796 112.883 L 179 112.860 179 104.502 C 179 94.367, 178.024 92.946, 171.179 93.116 C 168.605 93.180, 165.686 93.443, 164.692 93.701 M 90.011 97.487 C 88.349 99.489, 89.456 102, 92 102 C 93.135 102, 94.324 101.319, 94.643 100.487 C 95.218 98.990, 93.457 96, 92 96 C 91.585 96, 90.689 96.669, 90.011 97.487 M 110.709 97.624 C 109.223 99.110, 110.112 100, 113.083 100 C 115.103 100, 116.025 99.569, 115.755 98.750 C 115.288 97.332, 111.783 96.550, 110.709 97.624 M 168.336 105.567 C 168.005 106.429, 168.214 107.614, 168.800 108.200 C 170.355 109.755, 173 108.390, 173 106.031 C 173 103.565, 169.247 103.192, 168.336 105.567 M 87.380 115.452 C 86.665 117.317, 87.500 118.636, 89.772 119.230 C 92.662 119.986, 96 118.272, 96 116.032 C 96 114.325, 95.355 114, 91.969 114 C 89.367 114, 87.740 114.515, 87.380 115.452" stroke="none" fill="#f2f4e5" fill-rule="evenodd"/><path d="M -0 100.005 L -0 200.010 100.250 199.755 L 200.500 199.500 200.755 99.750 L 201.010 0 100.505 0 L 0 0 -0 100.005 M 0.481 100.500 C 0.481 155.500, 0.602 178.147, 0.750 150.826 C 0.898 123.506, 0.898 78.506, 0.750 50.826 C 0.602 23.147, 0.481 45.500, 0.481 100.500 M 106.534 77.520 C 100.133 79.171, 95.749 83.753, 96.193 88.330 C 96.492 91.415, 96.628 91.498, 101.279 91.435 C 104.151 91.396, 106.666 90.763, 107.582 89.847 C 108.963 88.465, 112.547 77.163, 111.809 76.512 C 111.639 76.362, 109.265 76.816, 106.534 77.520 M 151.250 87.706 C 149.653 88.013, 149 88.844, 149 90.570 C 149 92.063, 148.422 93, 147.500 93 C 146.667 93, 146 93.889, 146 95 C 146 96.111, 146.667 97, 147.500 97 C 148.678 97, 149 98.381, 149 103.429 C 149 111.122, 150.388 113, 156.071 113 C 159.286 113, 160 112.649, 160 111.070 C 160 109.829, 159.196 109.025, 157.750 108.820 C 155.761 108.537, 155.465 107.842, 155.202 102.821 C 154.911 97.262, 154.964 97.135, 157.702 96.821 C 161.397 96.397, 161.434 93.607, 157.750 93.184 C 155.447 92.919, 155 92.390, 155 89.934 C 155 88.320, 154.662 87.061, 154.250 87.136 C 153.838 87.211, 152.488 87.467, 151.250 87.706 M 25.315 93.007 C 23.042 93.923, 21 96.874, 21 99.243 C 21 101.774, 23.566 104.164, 27.049 104.876 C 32.206 105.931, 31.665 108.572, 26.359 108.244 C 23.249 108.052, 22.058 108.405, 21.575 109.664 C 20.684 111.986, 22.668 112.967, 28.295 112.985 C 34.423 113.004, 38.578 109.505, 37.541 105.200 C 36.761 101.961, 34.432 100, 31.368 100 C 30.130 100, 28.809 99.500, 28.431 98.888 C 27.464 97.323, 30.052 95.975, 32.732 96.648 C 35.406 97.319, 37.136 94.333, 34.896 92.914 C 33.141 91.803, 28.184 91.851, 25.315 93.007 M 88.686 93.056 C 87.138 93.499, 85.226 94.398, 84.436 95.053 C 82.831 96.385, 82.484 101.563, 83.941 102.463 C 84.480 102.797, 84.161 104.304, 83.191 105.999 C 81.786 108.453, 81.714 109.299, 82.766 110.988 C 83.800 112.651, 83.772 113.432, 82.613 115.261 C 78.270 122.115, 91.289 126.788, 99.583 121.354 C 102.664 119.335, 103.631 114.612, 101.598 111.510 C 100.288 109.509, 99.056 109.049, 94.339 108.800 C 90.913 108.619, 88.494 108.004, 88.246 107.250 C 87.991 106.479, 88.767 106, 90.267 106 C 96.489 106, 101 102.730, 101 98.221 C 101 94.199, 94.388 91.426, 88.686 93.056 M 38 93.511 C 38 93.792, 39.657 98.350, 41.682 103.641 C 45.097 112.563, 45.258 113.451, 43.899 115.880 C 43.079 117.346, 41.347 118.654, 39.967 118.851 C 37.645 119.181, 36.050 120.553, 36.015 122.250 C 36.007 122.662, 37.947 123, 40.326 123 C 43.534 123, 45.204 122.412, 46.791 120.723 C 48.525 118.877, 59 95.570, 59 93.557 C 59 93.251, 57.686 93, 56.080 93 C 53.466 93, 52.988 93.521, 51.504 97.988 C 50.593 100.732, 49.458 103.217, 48.982 103.511 C 48.506 103.805, 47.333 101.561, 46.376 98.523 C 44.725 93.285, 44.463 93, 41.317 93 C 39.493 93, 38 93.230, 38 93.511 M 60 103.051 L 60 113 63.500 113 L 67 113 67 105.567 C 67 99.024, 67.238 98.059, 68.991 97.503 C 72.322 96.445, 73 97.807, 73 105.559 L 73 113 76.500 113 L 80 113 79.985 105.750 C 79.977 101.763, 79.402 97.375, 78.707 96 C 77.518 93.648, 76.929 93.488, 68.722 93.301 L 60 93.101 60 103.051 M 105.923 95.923 C 103.535 98.311, 103 99.693, 103 103.469 C 103 109.759, 106.140 113.006, 112.205 112.986 C 118.359 112.967, 121.153 112.034, 120.785 110.121 C 120.550 108.900, 119.289 108.493, 115.683 108.472 C 111.264 108.446, 109.066 107.219, 109.015 104.750 C 109.007 104.338, 111.925 104, 115.500 104 L 122 104 122 100.689 C 122 95.729, 118.941 93, 113.384 93 C 109.702 93, 108.295 93.551, 105.923 95.923 M 125 103.105 L 125 113 128 113 L 131 113 131 106.035 C 131 100.022, 131.282 98.919, 133.064 97.966 C 136.626 96.059, 138 98.329, 138 106.122 L 138 113 141 113 L 144 113 144 104.571 C 144 93.622, 143.485 93.088, 132.981 93.157 L 125 93.210 125 103.105 M 164.692 93.701 C 163.497 94.010, 162.996 94.905, 163.215 96.335 C 163.423 97.686, 164.102 98.341, 165.024 98.076 C 167.988 97.226, 172.319 97.529, 172.693 98.613 C 172.907 99.237, 171.467 99.987, 169.414 100.320 C 167.400 100.647, 164.908 101.678, 163.876 102.612 C 161.707 104.575, 161.352 110.217, 163.296 111.831 C 164.008 112.422, 167.833 112.896, 171.796 112.883 L 179 112.860 179 104.502 C 179 94.367, 178.024 92.946, 171.179 93.116 C 168.605 93.180, 165.686 93.443, 164.692 93.701 M 90.011 97.487 C 88.349 99.489, 89.456 102, 92 102 C 93.135 102, 94.324 101.319, 94.643 100.487 C 95.218 98.990, 93.457 96, 92 96 C 91.585 96, 90.689 96.669, 90.011 97.487 M 110.709 97.624 C 109.223 99.110, 110.112 100, 113.083 100 C 115.103 100, 116.025 99.569, 115.755 98.750 C 115.288 97.332, 111.783 96.550, 110.709 97.624 M 168.336 105.567 C 168.005 106.429, 168.214 107.614, 168.800 108.200 C 170.355 109.755, 173 108.390, 173 106.031 C 173 103.565, 169.247 103.192, 168.336 105.567 M 87.380 115.452 C 86.665 117.317, 87.500 118.636, 89.772 119.230 C 92.662 119.986, 96 118.272, 96 116.032 C 96 114.325, 95.355 114, 91.969 114 C 89.367 114, 87.740 114.515, 87.380 115.452" stroke="none" fill="#74842c" fill-rule="evenodd"/></svg>