<svg xmlns="http://www.w3.org/2000/svg" width="200" height="200" viewBox="0 0 200 200" version="1.1"><path d="M 161.734 81.277 C 158.588 87.450, 152.218 99.813, 147.579 108.750 L 139.144 125 144.552 125 C 149.862 125, 149.997 124.927, 152.018 120.965 L 154.076 116.931 164.201 117.215 L 174.326 117.500 175.497 121 C 176.613 124.332, 176.917 124.515, 181.834 124.802 C 184.860 124.979, 187 124.684, 187 124.090 C 187 123.532, 186.138 120.696, 185.084 117.788 C 184.030 114.879, 179.916 103.275, 175.941 92 C 171.966 80.725, 168.431 71.175, 168.084 70.777 C 167.738 70.380, 164.880 75.105, 161.734 81.277 M 79.764 72.996 C 72.507 75.181, 66.216 81.342, 62.464 89.938 C 59.716 96.232, 59.840 108.048, 62.711 113.500 C 68.401 124.308, 81.570 128.852, 94.145 124.345 C 98.267 122.868, 98.857 122.276, 99.384 119.090 C 99.711 117.116, 99.983 114.256, 99.989 112.736 L 100 109.972 96.072 112.571 C 88.265 117.738, 76.988 116.307, 72.919 109.635 C 68.712 102.735, 71.470 89.654, 78.133 84.901 C 82.864 81.527, 94.368 81.417, 98.812 84.703 L 101.791 86.906 102.382 84.703 C 102.707 83.491, 102.979 80.790, 102.986 78.699 C 102.999 75.302, 102.632 74.744, 99.532 73.449 C 95.804 71.891, 84.308 71.628, 79.764 72.996 M 16.594 75.250 C 15.685 79.859, 13.997 99.717, 13.999 105.790 C 14.001 117.592, 20.357 125.037, 31.093 125.813 C 42.311 126.625, 52.739 118.746, 54.442 108.172 C 54.977 104.845, 57.992 75.615, 57.998 73.698 C 57.999 73.256, 55.638 73.031, 52.750 73.198 L 47.500 73.500 46.209 88 C 44.390 108.429, 44.277 108.923, 40.521 112.679 C 36.071 117.129, 31.120 117.274, 26.923 113.077 C 23.489 109.643, 23.448 108.972, 25.500 90 C 27.516 71.362, 27.851 73, 22.019 73 C 17.652 73, 16.983 73.277, 16.594 75.250 M 109.692 94.250 C 108.720 105.938, 107.675 117.638, 107.369 120.250 L 106.812 125 122.305 125 L 137.799 125 138.162 120.429 C 138.362 117.916, 138.332 115.666, 138.096 115.429 C 137.860 115.193, 133.202 115, 127.745 115 L 117.824 115 118.405 111.250 C 118.724 109.188, 119.435 101.650, 119.985 94.500 C 120.535 87.350, 121.241 79.588, 121.554 77.250 L 122.123 73 116.791 73 L 111.459 73 109.692 94.250 M 162.641 98.401 C 160.638 102.736, 159 106.668, 159 107.141 C 159 107.613, 161.700 108, 165 108 C 168.300 108, 171 107.637, 171 107.194 C 171 106.751, 169.938 102.818, 168.641 98.455 L 166.282 90.521 162.641 98.401" stroke="none" fill="#f0f7f9" fill-rule="evenodd"/><path d="M -0 100.005 L -0 200.010 100.250 199.755 L 200.500 199.500 200.755 99.750 L 201.010 0 100.505 0 L 0 0 -0 100.005 M 0.481 100.500 C 0.481 155.500, 0.602 178.147, 0.750 150.826 C 0.898 123.506, 0.898 78.506, 0.750 50.826 C 0.602 23.147, 0.481 45.500, 0.481 100.500 M 161.734 81.277 C 158.588 87.450, 152.218 99.813, 147.579 108.750 L 139.144 125 144.552 125 C 149.862 125, 149.997 124.927, 152.018 120.965 L 154.076 116.931 164.201 117.215 L 174.326 117.500 175.497 121 C 176.613 124.332, 176.917 124.515, 181.834 124.802 C 184.860 124.979, 187 124.684, 187 124.090 C 187 123.532, 186.138 120.696, 185.084 117.788 C 184.030 114.879, 179.916 103.275, 175.941 92 C 171.966 80.725, 168.431 71.175, 168.084 70.777 C 167.738 70.380, 164.880 75.105, 161.734 81.277 M 79.764 72.996 C 72.507 75.181, 66.216 81.342, 62.464 89.938 C 59.716 96.232, 59.840 108.048, 62.711 113.500 C 68.401 124.308, 81.570 128.852, 94.145 124.345 C 98.267 122.868, 98.857 122.276, 99.384 119.090 C 99.711 117.116, 99.983 114.256, 99.989 112.736 L 100 109.972 96.072 112.571 C 88.265 117.738, 76.988 116.307, 72.919 109.635 C 68.712 102.735, 71.470 89.654, 78.133 84.901 C 82.864 81.527, 94.368 81.417, 98.812 84.703 L 101.791 86.906 102.382 84.703 C 102.707 83.491, 102.979 80.790, 102.986 78.699 C 102.999 75.302, 102.632 74.744, 99.532 73.449 C 95.804 71.891, 84.308 71.628, 79.764 72.996 M 16.594 75.250 C 15.685 79.859, 13.997 99.717, 13.999 105.790 C 14.001 117.592, 20.357 125.037, 31.093 125.813 C 42.311 126.625, 52.739 118.746, 54.442 108.172 C 54.977 104.845, 57.992 75.615, 57.998 73.698 C 57.999 73.256, 55.638 73.031, 52.750 73.198 L 47.500 73.500 46.209 88 C 44.390 108.429, 44.277 108.923, 40.521 112.679 C 36.071 117.129, 31.120 117.274, 26.923 113.077 C 23.489 109.643, 23.448 108.972, 25.500 90 C 27.516 71.362, 27.851 73, 22.019 73 C 17.652 73, 16.983 73.277, 16.594 75.250 M 109.692 94.250 C 108.720 105.938, 107.675 117.638, 107.369 120.250 L 106.812 125 122.305 125 L 137.799 125 138.162 120.429 C 138.362 117.916, 138.332 115.666, 138.096 115.429 C 137.860 115.193, 133.202 115, 127.745 115 L 117.824 115 118.405 111.250 C 118.724 109.188, 119.435 101.650, 119.985 94.500 C 120.535 87.350, 121.241 79.588, 121.554 77.250 L 122.123 73 116.791 73 L 111.459 73 109.692 94.250 M 162.641 98.401 C 160.638 102.736, 159 106.668, 159 107.141 C 159 107.613, 161.700 108, 165 108 C 168.300 108, 171 107.637, 171 107.194 C 171 106.751, 169.938 102.818, 168.641 98.455 L 166.282 90.521 162.641 98.401" stroke="none" fill="#2c74b2" fill-rule="evenodd"/></svg>