<svg xmlns="http://www.w3.org/2000/svg" width="164" height="228" viewBox="0 0 164 228" version="1.1"><path d="M 150.913 92.282 C 144.676 97.071, 147.336 106, 155 106 C 159.629 106, 162 103.542, 162 98.744 C 162 92.892, 155.246 88.955, 150.913 92.282" stroke="none" fill="#ec1c1c" fill-rule="evenodd"/><path d="M 11 2.276 C 11 2.803, 23.759 25.221, 63.488 94.500 C 75.473 115.400, 87.173 135.875, 89.488 140 C 98.774 156.548, 120.264 193.559, 121.104 194.450 C 121.597 194.972, 122 195.131, 122 194.803 C 122 193.468, 135.176 146.493, 135.684 146.016 C 136.548 145.205, 135.093 151.383, 130.979 166 C 123.702 191.858, 123.123 194.125, 123.874 193.814 C 124.290 193.641, 129.408 188.063, 135.247 181.417 L 145.863 169.335 148.526 151.417 C 149.991 141.563, 151.485 131.777, 151.845 129.672 L 152.500 125.844 155.500 129.898 C 157.150 132.128, 158.817 133.963, 159.205 133.976 C 159.592 133.989, 160.188 132.517, 160.528 130.704 C 161.061 127.864, 160.272 125.994, 154.832 117.204 C 151.359 111.592, 148.234 107, 147.889 107 C 147.543 107, 146.668 109.113, 145.945 111.696 C 145.222 114.278, 144.482 115.946, 144.301 115.403 C 144.120 114.859, 144.598 112.331, 145.364 109.785 L 146.757 105.157 143.394 101.897 C 141.544 100.104, 139.784 98.883, 139.483 99.184 C 139.182 99.485, 134.982 111.553, 130.150 126.001 L 121.365 152.271 115.731 139.385 C 112.632 132.298, 103.096 110.075, 94.539 90 C 81.878 60.295, 78.379 52.977, 75.741 50.689 C 73.958 49.143, 59.225 37.928, 43 25.766 C 26.775 13.605, 12.938 3.227, 12.250 2.705 C 11.563 2.182, 11 1.990, 11 2.276 M 142.250 120.714 C 141.693 122.796, 140.034 128.937, 138.563 134.361 C 137.092 139.784, 136.067 144.400, 136.285 144.618 C 136.503 144.837, 138.368 138.901, 140.429 131.429 C 142.489 123.956, 143.969 117.636, 143.718 117.385 C 143.467 117.134, 142.806 118.632, 142.250 120.714 M 18.250 170.035 C 15.451 171.155, 15.291 174.640, 18 175.500 C 19.100 175.849, 20 176.554, 20 177.067 C 20 177.580, 19.100 178, 18 178 C 16.900 178, 16 178.464, 16 179.031 C 16 180.728, 18.962 181.338, 21.528 180.169 C 23.039 179.481, 24.149 179.432, 24.523 180.038 C 25.641 181.847, 27 181.003, 27 178.500 C 27 175.392, 29.730 175.111, 30.180 178.172 C 30.356 179.366, 31.063 180.529, 31.750 180.755 C 32.650 181.051, 33 179.603, 33 175.583 C 33 170.081, 31.731 168.096, 30.710 172 C 30 174.717, 27.215 174.538, 26.820 171.750 C 26.276 167.923, 24.531 169.267, 23.900 174 C 23.570 176.475, 23.233 177.767, 23.150 176.872 C 23.068 175.977, 21.988 174.512, 20.750 173.618 C 18.658 172.105, 18.640 172.009, 20.500 172.246 C 21.679 172.395, 22.500 171.918, 22.500 171.083 C 22.500 169.258, 21.071 168.905, 18.250 170.035 M 2.552 172.163 C 4.066 176.935, 6.075 181, 6.919 181 C 7.724 181, 11 172.829, 11 170.822 C 11 168.908, 8.864 170.218, 7.856 172.750 L 6.762 175.500 5.797 172.750 C 4.626 169.408, 1.498 168.842, 2.552 172.163 M 12.198 175.171 C 12.631 182.578, 15 182.927, 15 175.583 C 15 171.203, 14.665 170, 13.448 170 C 12.206 170, 11.956 171.034, 12.198 175.171 M 34.446 172.640 C 34.810 174.091, 35.682 176.679, 36.384 178.390 L 37.660 181.500 39.250 178.500 L 40.840 175.500 41.948 178.389 C 43.296 181.903, 44.024 181.296, 46.109 174.920 C 47.450 170.822, 47.486 170, 46.327 170 C 45.562 170, 44.523 171.012, 44.019 172.250 L 43.102 174.500 42.434 172.250 C 42.067 171.012, 41.197 170, 40.500 170 C 39.803 170, 38.933 171.012, 38.566 172.250 L 37.898 174.500 36.981 172.250 C 35.669 169.029, 33.618 169.344, 34.446 172.640 M 48.386 174.745 C 47.349 177.355, 46.350 179.830, 46.167 180.245 C 45.983 180.660, 46.546 181, 47.417 181 C 48.288 181, 49 180.553, 49 180.006 C 49 178.938, 52.498 179.165, 53.641 180.308 C 54.739 181.406, 56 181.114, 56 179.761 C 56 177.413, 52.498 170.007, 51.386 170.004 C 50.773 170.002, 49.423 172.135, 48.386 174.745 M 57 175.500 C 57 181.158, 58.411 182.767, 59.883 178.787 L 60.702 176.574 61.886 178.787 C 63.188 181.220, 66.858 181.742, 68.825 179.775 C 69.792 178.808, 70.464 178.808, 72.011 179.775 C 74.477 181.315, 75 181.312, 75 179.761 C 75 177.439, 71.504 170.008, 70.411 170.004 C 69.228 170, 67 174.236, 67 176.488 C 67 179.028, 65.026 179.152, 63.901 176.683 C 63.087 174.895, 63.095 173.692, 63.932 172.126 C 64.829 170.451, 64.787 170, 63.735 170 C 63.001 170, 61.860 170.540, 61.200 171.200 C 60.267 172.133, 60 172.133, 60 171.200 C 60 170.540, 59.325 170, 58.500 170 C 57.348 170, 57 171.278, 57 175.500 M 76 175.500 C 76 181.162, 77.411 182.766, 78.886 178.779 L 79.707 176.559 81.094 178.779 C 82.757 181.442, 85.778 181.661, 87.608 179.250 C 88.873 177.583, 88.938 177.583, 88.968 179.250 C 89.013 181.709, 90.905 181.431, 91.869 178.824 L 92.675 176.647 93.244 178.824 C 93.834 181.081, 97.346 181.867, 98.500 180 C 98.840 179.450, 99.991 179, 101.059 179 C 102.127 179, 103 179.450, 103 180 C 103 180.550, 103.723 181, 104.607 181 C 105.491 181, 105.990 180.438, 105.717 179.750 C 102.588 171.885, 101.646 170, 100.843 170 C 100.325 170, 99.062 171.876, 98.035 174.170 L 96.169 178.340 95.046 174.170 C 93.779 169.466, 92.804 168.978, 91.208 172.250 L 90.110 174.500 89.439 172.250 C 88.298 168.431, 86.177 169.639, 85.444 174.525 C 84.894 178.192, 84.507 178.836, 83.404 177.920 C 82.434 177.115, 82.323 176.266, 83.017 174.967 C 84.611 171.990, 83.159 170, 79.393 170 L 76 170 76 175.500 M 79 173.059 C 79 173.641, 79.450 173.840, 80 173.500 C 80.550 173.160, 81 172.684, 81 172.441 C 81 172.198, 80.550 172, 80 172 C 79.450 172, 79 172.477, 79 173.059 M 32.953 183.250 C 32.927 183.387, 32.806 185.863, 32.684 188.750 C 32.486 193.443, 32.679 194, 34.506 194 C 36.307 194, 36.559 193.347, 36.627 188.500 C 36.693 183.785, 36.440 183, 34.852 183 C 33.833 183, 32.979 183.113, 32.953 183.250 M 38 188.500 C 38 192.722, 38.348 194, 39.500 194 C 40.325 194, 41 193.325, 41 192.500 C 41 191.675, 41.464 191, 42.031 191 C 42.599 191, 43.322 191.675, 43.638 192.500 C 43.955 193.325, 45.089 194, 46.159 194 C 47.874 194, 48.069 193.388, 47.802 188.829 C 47.459 182.950, 45.011 180.639, 44.983 186.167 L 44.966 189.500 42.885 186.250 C 39.666 181.224, 38 181.992, 38 188.500 M 50.052 184.348 C 48.492 185.908, 48.752 187.100, 51.250 189.834 L 53.500 192.296 51.250 191.742 C 49.720 191.365, 49 191.638, 49 192.594 C 49 193.537, 50.164 194, 52.531 194 C 57.318 194, 58.248 191.470, 54.612 188.342 L 51.888 186 55.444 186 C 59.119 186, 59.354 186.344, 59.031 191.250 C 58.887 193.425, 59.283 194, 60.925 194 C 62.679 194, 63 193.382, 63 190 C 63 186.968, 63.395 186, 64.632 186 C 65.958 186, 66.163 186.748, 65.727 190 C 65.235 193.667, 65.383 194, 67.500 194 C 69.617 194, 69.765 193.667, 69.273 190 C 68.793 186.417, 68.959 186, 70.868 186 C 72.689 186, 73 186.584, 73 190 C 73 192.889, 73.417 194, 74.500 194 C 75.583 194, 76 192.889, 76 190 C 76 187.111, 76.417 186, 77.500 186 C 78.466 186, 79.005 186.979, 79.015 188.750 C 79.039 192.922, 80.299 194.188, 84.070 193.824 C 86.977 193.544, 87.520 193.053, 88.103 190.180 C 88.972 185.895, 88.210 182.982, 86.401 183.676 C 85.581 183.991, 85 185.619, 85 187.607 C 85 189.956, 84.539 191, 83.500 191 C 82.425 191, 82 189.903, 82 187.127 L 82 183.254 66.552 183.275 C 57.105 183.288, 50.695 183.705, 50.052 184.348 M 90.250 183.684 C 88.507 184.357, 88.684 186, 90.500 186 C 91.583 186, 92 187.111, 92 190 C 92 192.889, 92.417 194, 93.500 194 C 94.583 194, 95 192.889, 95 190 C 95 187.111, 95.417 186, 96.500 186 C 97.583 186, 98 187.111, 98 190 L 98 194 105.500 194 C 112.787 194, 113 193.931, 113 191.557 C 113 190.165, 112.043 188.443, 110.777 187.557 L 108.555 186 110.777 186 C 113.251 186, 113.791 184.241, 111.578 183.392 C 109.461 182.579, 106 184.798, 106 186.968 C 106 188.011, 106.900 189.151, 108 189.500 C 109.100 189.849, 110 190.607, 110 191.184 C 110 191.761, 109.100 191.998, 108 191.710 C 106.900 191.423, 106 191.533, 106 191.955 C 106 192.377, 104.875 192.508, 103.500 192.245 C 100.522 191.675, 100.148 190, 103 190 C 105.467 190, 105.600 188.449, 103.250 187.080 C 101.604 186.122, 101.609 186.059, 103.333 186.030 C 104.346 186.014, 104.981 185.441, 104.751 184.750 C 104.338 183.504, 92.897 182.664, 90.250 183.684 M 124 198.780 C 124 199.282, 125.397 203.474, 127.104 208.096 C 128.811 212.718, 130.928 218.657, 131.809 221.293 C 133.073 225.080, 133.822 226.024, 135.378 225.793 C 136.910 225.565, 138.303 222.861, 141.649 213.616 C 147.873 196.419, 147.621 197.797, 144.472 198.175 C 142.060 198.464, 141.431 199.416, 138.768 206.804 C 137.122 211.372, 135.600 214.934, 135.386 214.720 C 135.173 214.506, 133.721 210.769, 132.161 206.416 C 129.666 199.452, 129.005 198.462, 126.663 198.184 C 125.198 198.010, 124 198.278, 124 198.780 M 150 212 L 150 226 153 226 L 156 226 156 212 L 156 198 153 198 L 150 198 150 212" stroke="none" fill="#1b5cac" fill-rule="evenodd"/></svg>